# xmcd CD database file
#
# Track frame offsets:
#	150
#	16050
#	38050
#
# Disc length: 716 seconds
#
# Revision: 0
# Processed by: cddbd v1.5PL3 Copyright (c) Steve Scherf et al.
# Submitted via: CDex 1.50
#
DISCID=1502ca03
DTITLE=シャ乱Q - 都会のメロディー
DYEAR=1900
DGENRE=J-POP
TTITLE0=都会のメロディー
TTITLE1=ノイズ
TTITLE2=都会のメロディー(オリジナル カラオケ)
EXTD=
EXTT0=
EXTT1=
EXTT2=
PLAYORDER=
